<svg xmlns="http://www.w3.org/2000/svg" width="74.807" height="84.922" viewBox="0 0 74.807 84.922">
    <defs>
        <style>.a{fill:#0f6dd7;}</style>
    </defs>
    <g transform="translate(0.001 -0.004)">
        <g transform="translate(-0.001 0.004)">
            <path class="a"
                d="M67.969,345.2c1.809,4.977-1.223,7.278-1.537,7.5a3.75,3.75,0,0,0-.5,4.3c1.308,1.265,1.169,2.208,1.122,2.4l-.471,6.355a2.209,2.209,0,0,1,.318,2.609l-.01.016a37.865,37.865,0,0,0-3.24,5.878l-.15.311a1.1,1.1,0,0,0-.1.524,5.107,5.107,0,0,1-.957,3.075c-9,12.931-15.029,13.777-15.922,13.829-2.865,3.055-6.013,4.619-9.358,4.648h-.1c-5.206,0-9.2-3.784-9.674-4.25a25.816,25.816,0,0,1-15.62-12.772,33.243,33.243,0,0,1-3.5-9.387,19.6,19.6,0,0,1-.534-15.877c1.1-2.867.26-3.628.251-3.636l-.047-.04-.025-.062c-1.9-5.238-.351-8.521-.032-9.109-.025-.087-.049-.172-.075-.258a36.735,36.735,0,1,0,60.306,3.535C68.049,344.977,68,345.117,67.969,345.2Z"
                transform="translate(0.001 -315.718)" />
            <path class="a"
                d="M324.037,164.095c13.238-1.23,20.017.833,21.043,1.181a83.841,83.841,0,0,1,8.048-5.942,36.8,36.8,0,0,0-33.5-4.067c.66,1.2,1.26,2.354,1.79,3.425C322.808,161.376,323.761,163.476,324.037,164.095Z"
                transform="translate(-295.715 -141.522)" />
            <path class="a"
                d="M534.645,255.685a2.3,2.3,0,0,1-.4,1.44s-1.3,2.379-3.255,1.739a4.437,4.437,0,0,1-2.065-1.739,3.276,3.276,0,0,1,0-2.48s1.067-3.442,2.755-7.656a36.952,36.952,0,0,0-5.872-5.129,82.463,82.463,0,0,0-8.248,6.1l-.106.1-.134-.052c-.049-.019-3.684-1.379-11.283-1.566l.028.024a.682.682,0,0,1,.218.374q.644.779,1.283,1.564a10.4,10.4,0,0,1,.783.946,2.577,2.577,0,0,1,.493.748,1.181,1.181,0,0,1-.254.8c-.046.08-.1.16-.15.238-.035.051-.075.1-.106.15a11.847,11.847,0,0,0-2.251,6.061,23.739,23.739,0,0,1-.236,4.616c0,.016-.01.032-.015.048h.055s.839-.08.92-.56a21.194,21.194,0,0,0,.01-2.284.014.014,0,0,1,.028,0c.064.462.2,1.409.318,2.043a.061.061,0,0,0,.12-.01c.016-.631-.01-1.821-.025-2.436a.055.055,0,0,1,.106-.018,20.858,20.858,0,0,1,.684,2.548c0,.4.319.24.319-.04,0-.224-.075-1.571-.106-2.123a.075.075,0,0,1,.135-.051l.58.724a.363.363,0,0,1,.075.2l.075,1.246s.08.239.281-.2a4.166,4.166,0,0,0,.064-1.512.021.021,0,0,1,.04-.009,4.35,4.35,0,0,0,.5,1.319c.2.12.239,1.36.8,1.76.449.323.409,1.973.374,2.6a.047.047,0,0,0,.089.024,24.915,24.915,0,0,0,1.244-2.918,14.31,14.31,0,0,0,.131,1.933,13.1,13.1,0,0,0,.988-1.6.017.017,0,0,1,.031.014,9.306,9.306,0,0,0-.5,1.984,11.405,11.405,0,0,1-.15,3.428.143.143,0,0,0,.129.2,1.167,1.167,0,0,0,.633-.179.126.126,0,0,1,.183.085c.112.53.445,2.138.445,2.272s.229-.3.331-1.065a.052.052,0,0,1,.1-.008,6.714,6.714,0,0,1,.087,2.834,2.784,2.784,0,0,0-.36,2l.017.349a3.1,3.1,0,0,1,.621-1.107c.026-.06.053-.12.081-.181a6.614,6.614,0,0,1,3.938-2.573.126.126,0,0,1,.1-.022,8.726,8.726,0,0,1,3.367-.045s2.881.48,1.161,4.48c0,0-.569,1.937-1.629,2.5a4.15,4.15,0,0,1-.952.444,9.941,9.941,0,0,1-3.816.34,3.226,3.226,0,0,1,.977.661.95.95,0,0,0,.524.33c.762.158,2.469.815,3.522,3.544a.986.986,0,0,0,.807.625c.55.063,1.282.278,1.3.985a.81.81,0,0,0,.687.771,2.583,2.583,0,0,0,1.417-.254,15.445,15.445,0,0,0,3.04-1.88,4.3,4.3,0,0,0,1.278-.6,1.659,1.659,0,0,1,.062-.156l.146-.31a38.372,38.372,0,0,1,3.281-5.947,1.719,1.719,0,0,0-.331-2.106l-.075-.075.5-6.643s.215-.8-1.021-1.979l-.025-.024-.016-.031a4.3,4.3,0,0,1,.576-4.9l.041-.034c.13-.085,3.175-2.132,1.347-7.044l-.031-.083.031-.082c.005-.012.119-.312.295-.839q-.471-.743-.973-1.462C534.719,251.98,534.639,255.014,534.645,255.685Z"
                transform="translate(-467.983 -223.764)" />
            <path class="a"
                d="M261.631,93.875a56.3,56.3,0,0,0-4.691-7.265,69.783,69.783,0,0,1,4.646,7.282Z"
                transform="translate(-237.715 -80.13)" />
            <path class="a"
                d="M354.384,693.41a3.282,3.282,0,0,1-.834.58h.015A3.031,3.031,0,0,0,354.384,693.41Z"
                transform="translate(-327.097 -641.528)" />
            <path class="a"
                d="M94.794,225.773s2.8,3.4,4.32,2.8a10.277,10.277,0,0,1,2.221-1.306.887.887,0,0,0,.389-.212,4.519,4.519,0,0,1,2.832-1.341.948.948,0,0,1,.159.019,35.221,35.221,0,0,0,5.686.023,4.211,4.211,0,0,1-.03-.869c-.046.007-.092.013-.141.019a5.612,5.612,0,0,1-1.452.406,6.612,6.612,0,0,1-6.42-3.28s-2.081-3.781,1.88-5.121c0,0,6.1-1.02,7.8,4.9a3.294,3.294,0,0,1-.036,1.9,6.848,6.848,0,0,0,.443-.652.079.079,0,0,1,.029-.028c-.122-1.632-.294-4.724.084-5.423a9.608,9.608,0,0,0,.48-2.64s.44-.96.72-.92a2.6,2.6,0,0,1,.961-1.92,23.292,23.292,0,0,1,.28-3.36s0,1.24.12,1.24a9.851,9.851,0,0,0,.4-1.96c-.075-.249.491.261.616.771a.025.025,0,0,0,.049,0c.075-.516.3-1.89.615-1.809,0,0,.414-.113.329,1.452a.3.3,0,0,0,.1.242,3.526,3.526,0,0,1,.583.588.314.314,0,0,0,.284.141c.457-.027,1.509-.026,1.942.5l.453.551a.353.353,0,0,0,.274.129h.109c-.011-.016-.022-.034-.033-.051a3.39,3.39,0,0,1-.437-2.811c.013-.035.027-.07.04-.1h0a.586.586,0,0,0,.049-.137.506.506,0,0,1,.019-.06.713.713,0,0,0,.057-.108l.012-.007a4.731,4.731,0,0,0,.327-.785q.019-.471.046-.943c0-.059-.007-.117-.01-.176a9.936,9.936,0,0,1,.823-4.055,4.024,4.024,0,0,0,.319-1.113c-.006-.043-.01-.088-.017-.131-.039-.252-.082-.5-.12-.756a5.36,5.36,0,0,1-.275-1,2.242,2.242,0,0,0-.075-.511,1.214,1.214,0,0,0-.129-.242,4.081,4.081,0,0,0-1.1-1.119c-.338-.233-.709-.413-1.039-.656a1.908,1.908,0,0,1-.669-.805c-1.967.04-4.139.159-6.522.385l-.168.016-.067-.154c-.044-.1-1.894-4.265-4.552-8.979q-1.08.421-2.126.906c1.471,3.249,2.281,6.415,1.733,8.587a.673.673,0,0,1-.415.465c-1.418.536-6.584,1.487-12.1,9.524l-.13.19a.428.428,0,0,1-.629.088c-.769-.639-2.245-2.589-.449-7.417a2.955,2.955,0,0,0,.053-2.581q-.606.678-1.179,1.386c.061.224.124.445.189.673l.028.1-.053.087c-.019.033-1.941,3.323,0,8.747.237.236.944,1.241-.162,4.115a19.353,19.353,0,0,0-.78,11.978C91.972,223.385,94.18,224.274,94.794,225.773Z"
                transform="translate(-83.938 -172.37)" />
            <path class="a" d="M351.64,701.33c.025-.01.068-.028.126-.054v-.006Z"
                transform="translate(-325.33 -648.8)" />
            <path class="a"
                d="M75.888,10.486C76.268,2.5,79.848.228,79.848.228c2.047-.623,4.357.805,6.629,3.2A27.787,27.787,0,0,1,89.2,6.481C86.118,2.339,82.718-.734,79.785.159l-.03.009-.027.016c-.081.052-2.006,1.3-3.195,5.13-1.072,3.448-1.713,9.745,1.256,20.221l.2-.248A38.3,38.3,0,0,1,75.888,10.486Z"
                transform="translate(-69.978 -0.004)" />
            <path class="a"
                d="M775.422,56.183l6.123-5.961,2.963-2.95c.288.648.036,2.044-.458,3.681A27.851,27.851,0,0,1,782.3,55.7c-.973,2.334-1.876,4.215-1.876,4.215-.108.887-.432,3.044-.863,5.337a42.324,42.324,0,0,1-1.716,6.979q.1.156.193.313a41.516,41.516,0,0,0,2.117-10.362c.036-.21.57-3.292,1.516-4.569l.016-.025c.134-.237,3.271-5.868,3.029-10.088l-.029-.509-9.408,9.159c-.322.2-4.027,2.5-7.943,5.138l.091.062C771.537,58.588,775.422,56.183,775.422,56.183Z"
                transform="translate(-709.927 -43.474)" />
            <path class="a"
                d="M383.5,243.424a.177.177,0,0,0,0,.108,1.3,1.3,0,0,0,.051.161q1.776-.037,3.331,0a1.673,1.673,0,0,0-.312-.207,69.592,69.592,0,0,1,11.715,1.576l7.251-5.541.884-.563-.089-.061a81.335,81.335,0,0,0-8.088,5.993s-6.649-2.576-21.2-1.2l.087.213A43.023,43.023,0,0,1,383.5,243.424Z"
                transform="translate(-348.829 -221.026)" />
            <path class="a" d="M903.129,452.11l-.6,1.44A5.334,5.334,0,0,0,903.129,452.11Z"
                transform="translate(-835.002 -418.283)" />
            <path class="a" d="M888.841,478l-.741.763A4.651,4.651,0,0,0,888.841,478Z"
                transform="translate(-821.651 -442.236)" />
            <path class="a"
                d="M906.67,396.65c.157.941.328,3.166.374,3.769A7.547,7.547,0,0,0,906.67,396.65Z"
                transform="translate(-838.832 -366.972)" />
            <path class="a"
                d="M102.376,342.12c.007.024.014.048.021.075a5.83,5.83,0,0,0-.507,1.253,3.653,3.653,0,0,1,.592-1Z"
                transform="translate(-94.266 -316.522)" />
            <path class="a"
                d="M149.939,679.382a1.59,1.59,0,0,0-.081.587,4.719,4.719,0,0,1-.868,2.778c-9.386,13.492-15.583,13.641-15.648,13.641h-.1l-.07.075c-2.791,3-5.847,4.541-9.083,4.571h-.1c-5.312,0-9.344-4.115-9.385-4.154l-.044-.046-.061-.016a25.371,25.371,0,0,1-15.393-12.556,32.609,32.609,0,0,1-3.461-9.285l-.006-.033-.014-.03a19.632,19.632,0,0,1-1.313-3.559c-.111-.04-.177-.061-.177-.061q-.1-.263-.186-.536a19.889,19.889,0,0,0,1.461,4.106s2.94,17.583,19.022,22.022c0,0,9.421,9.781,18.9-.42,0,0,6.241.06,15.842-13.741a4.914,4.914,0,0,0,.909-2.922,1.324,1.324,0,0,1,.121-.632l.038-.081A1.678,1.678,0,0,1,149.939,679.382Z"
                transform="translate(-86.92 -620.573)" />
            <path class="a"
                d="M886.12,573.559l.1,1.14.419-5.65a1.471,1.471,0,0,0-.155-.989l.12,1.019Z"
                transform="translate(-819.819 -525.557)" />
            <path class="a"
                d="M111.1,480.19a5.749,5.749,0,0,1-.239,1.607c.251-.744.426-1.184.426-1.184C111.221,480.47,111.159,480.33,111.1,480.19Z"
                transform="translate(-102.565 -444.262)" />
            <path class="a"
                d="M88.86,512.94c-.023.064-.046.127-.071.192a20.311,20.311,0,0,0-1.38,8.471A29.124,29.124,0,0,1,88.86,512.94Z"
                transform="translate(-80.838 -474.561)" />
            <path class="a" d="M888.879,671.392l-.008.6a1.916,1.916,0,0,0-.331-2l.019.23Z"
                transform="translate(-822.058 -619.87)" />
            <path class="a" d="M874.744,542.09a4.54,4.54,0,0,1-.244-.64l.03.411Z"
                transform="translate(-809.069 -500.938)" />
            <path class="a"
                d="M906.51,384.531c.028-.075.06-.169.1-.275v-.006C906.567,384.358,906.536,384.456,906.51,384.531Z"
                transform="translate(-838.684 -355.5)" />
            <path class="a"
                d="M905.162,388.629a1.668,1.668,0,0,0-.1-.4s.031-.089.085-.251c-.07.2-.11.3-.11.3C905.083,388.4,905.124,388.514,905.162,388.629Z"
                transform="translate(-837.324 -358.951)" />
            <path class="a"
                d="M872.015,492.155l-.13-1.789.76-1.8.385-.4c-.105.085-.17.126-.17.126A3.772,3.772,0,0,0,872.015,492.155Z"
                transform="translate(-806.584 -451.645)" />
            <path class="a"
                d="M878.746,551.351l-.04-.341L877.76,550c.037.075.061.121.061.121A4.026,4.026,0,0,1,878.746,551.351Z"
                transform="translate(-812.085 -508.849)" />
            <path class="a" d="M898.231,471.6l.106-.254a5.211,5.211,0,0,1-.338.5Z"
                transform="translate(-830.81 -436.083)" />
            <path class="a"
                d="M886.736,657.751l-.085-.991-.061.831C886.643,657.646,886.691,657.7,886.736,657.751Z"
                transform="translate(-820.254 -607.621)" />
            <path class="a" d="M910.624,447.183s0-.055-.011-.153c-.024.131-.052.257-.083.38Z"
                transform="translate(-842.403 -413.583)" />
            <path class="a"
                d="M846.34,703.006c.019-.024.039-.049.056-.075.44-.641,2.4-4.564,2.4-4.564l1.03-1.63v-.127a1.6,1.6,0,0,1-.117.247A40.385,40.385,0,0,0,846.34,703.006Z"
                transform="translate(-783.016 -644.489)" />
            <path class="a"
                d="M769.75,66.045l.23.16c3.995-2.683,7.733-5,7.8-5.039l.022-.013,8.7-8.467c-.04,3.936-2.819,9.013-2.976,9.3-1.036,1.415-1.571,4.632-1.594,4.768v.023a41.045,41.045,0,0,1-1.971,9.893c.04.064.081.126.12.191.254-.782.734-2.342,1.137-4.129.207-.917.4-1.892.582-2.843.161-1.031.288-2.123.358-3.246,0,0,.54-3.3,1.56-4.681,0,0,.355-.63.823-1.625.628-1.525,1.288-3.236,1.743-4.742A12.121,12.121,0,0,0,786.713,52l-2.937,2.857L777.5,61.108Z"
                transform="translate(-712.156 -48.11)" />
            <path class="a"
                d="M95.72,367.578a12.325,12.325,0,0,1-.507-7.749c-.59,1.383-1.14,4.259.91,9.005C96.107,367.876,95.72,367.578,95.72,367.578Z"
                transform="translate(-87.59 -332.907)" />
            <path class="a"
                d="M321.258,192.844c-.271-.66-1.165-2.793-2.505-5.5-.548-1.062-1.166-2.217-1.835-3.407l-.168.063c2.657,4.722,4.473,8.845,4.473,8.845Z"
                transform="translate(-293.05 -170.178)" />
            <path class="a" d="M107,337.791c.034.1.067.208.1.313l-.092-.325Z"
                transform="translate(-98.994 -312.507)" />
            <path class="a"
                d="M88.319,631.9a18.716,18.716,0,0,1-.459-3.142A11.44,11.44,0,0,0,88.319,631.9Z"
                transform="translate(-81.286 -581.716)" />
            <path class="a"
                d="M107.21,502.513q.168-.456.273-.843C107.4,501.919,107.307,502.2,107.21,502.513Z"
                transform="translate(-99.188 -464.135)" />
            <path class="a"
                d="M80.682,28.629l.15-.189C78.011,18.308,78.62,12.21,79.648,8.86,80.711,5.4,82.422,4.1,82.641,3.946c4.2-1.229,9.642,6.62,13.436,13.347l.29-.111a55.259,55.259,0,0,0-7.2-10.4c-2.088-1.984-4.3-3.254-6.524-3.148,0,0-3.454,2.887-4.066,10.2A46.793,46.793,0,0,0,80.682,28.629Z"
                transform="translate(-72.665 -3.356)" />
            <path class="a"
                d="M106.721,24.968a.5.5,0,0,0-.542.079.518.518,0,0,0-.068.075c-5.446,7.1-1.637,20.9-1.637,20.9a5.461,5.461,0,0,1,.333.739A36.857,36.857,0,0,1,116.745,37.9C114.191,32.259,109.64,26.36,106.721,24.968Z"
                transform="translate(-95.459 -23.056)" />
            <path class="a"
                d="M854.427,134.991a1.222,1.222,0,0,1,.012-.137,1.411,1.411,0,0,1,.145-.507c1.228-2.459,2.635-8.53,2.852-9.485a1.544,1.544,0,0,0,.036-.255c.165-2.434,2.075-6.695,2.613-7.856a.092.092,0,0,0-.135-.113c-3.276,2.334-6.477,9.053-8.65,14.481A36.893,36.893,0,0,1,854.427,134.991Z"
                transform="translate(-787.605 -107.895)" />
            <path class="a"
                d="M605.13,683.6c.77.374.542-.052.542-.052-.5-.4-.2-.5-.2-.5a2.344,2.344,0,0,1,.717.673.21.21,0,0,0,.15.082c1.331.075,1.064-1.449,1.064-1.449a1.259,1.259,0,0,1-.256-.177,2.2,2.2,0,0,1-.449-.351c-.3-.1-.5-.15-.5-.15l-.041-.809a3.157,3.157,0,0,1-.059-1.163l-.043-.839c-.5,1.161-1.057,2.812-1.057,2.812C604.289,683,605.13,683.6,605.13,683.6Z"
                transform="translate(-559.471 -628.076)" />
            <path class="a"
                d="M634.191,719.56a2.7,2.7,0,0,0,1.015.357,5.65,5.65,0,0,0,.767.156,16.657,16.657,0,0,0-2.034-.8A1.486,1.486,0,0,0,634.191,719.56Z"
                transform="translate(-586.508 -665.454)" />
            <path class="a"
                d="M623.418,667.113a2.1,2.1,0,0,0,.537.961l.2.064c-.879-1.3-.213-4.138-.213-4.138h0a6.853,6.853,0,0,0-.578,1.945Z"
                transform="translate(-576.719 -614.319)" />
            <path class="a"
                d="M677.3,626.985a4.016,4.016,0,0,0,.213,4.489.113.113,0,0,0,.185-.014c1.434-2.48.219-4.069-.2-4.5a.122.122,0,0,0-.069-.037l-.1.023A.127.127,0,0,0,677.3,626.985Z"
                transform="translate(-626.103 -580.013)" />
            <path class="a"
                d="M354.314,679.688l-.634.023a1.2,1.2,0,0,0,.138.428.571.571,0,0,1,.105.269c-.028.429-.075,1.642.991.58a3.99,3.99,0,0,1,.908-.64.51.51,0,0,1,.15-.037c.2.06,1.043-.423.6-.863-.418-.417-.709-.565-.7-2.386a.082.082,0,0,0-.12-.075c.046.61.084,1.018.084,1.018Z"
                transform="translate(-327.217 -626.326)" />
            <path class="a" d="M353.34,701.161v.007l.016-.008Z"
                transform="translate(-326.903 -648.699)" />
            <path class="a"
                d="M294.767,610.564c-1.455.664-1.244,2.95-.958,3.636a.162.162,0,0,0,.241.07,2.9,2.9,0,0,0,.9-3.63.136.136,0,0,0-.18-.076Z"
                transform="translate(-271.635 -564.871)" />
            <path class="a"
                d="M354.905,686.23a2.5,2.5,0,0,1-1.593,1.116l-.032.015v.042A1.889,1.889,0,0,0,354.905,686.23Z"
                transform="translate(-326.847 -634.886)" />
            <path class="a"
                d="M364.69,663.249a2.845,2.845,0,0,0,.81-2.439A2.913,2.913,0,0,1,364.69,663.249Z"
                transform="translate(-337.403 -611.368)" />
            <path class="a" d="M351.33,702.087h.005l.018-.007Z"
                transform="translate(-325.043 -649.55)" />
            <path class="a"
                d="M439.594,936.65a8.373,8.373,0,0,1-.906,2.56,7.4,7.4,0,0,1-3.158,2.726,5.594,5.594,0,0,0,4.066-4.6C439.585,937.117,439.584,936.888,439.594,936.65Z"
                transform="translate(-402.943 -866.569)" />
            <path class="a"
                d="M490.43,939.882a6.721,6.721,0,0,1-.524-2.212c-.01.18-.031.385-.066.609a5.039,5.039,0,0,0,4,4.685A5.836,5.836,0,0,1,490.43,939.882Z"
                transform="translate(-453.189 -867.513)" />
            <path class="a"
                d="M389.14,941.123c.044,0,.087-.011.131-.016a6.856,6.856,0,0,0,5.916-5.774,3.264,3.264,0,0,1-.349-.013,8.781,8.781,0,0,1-.666,2.112,6.086,6.086,0,0,1-1.526,1.89,6.478,6.478,0,0,1-2.079,1.24,4.562,4.562,0,0,1-2.875.075c-.158-.051-.213.184-.067.243a4.472,4.472,0,0,0,3.5-.171,9.889,9.889,0,0,1-1.859.4Z"
                transform="translate(-358.543 -865.339)" />
            <path class="a"
                d="M498.218,940.8a5.168,5.168,0,0,1-1.417,0,8.634,8.634,0,0,1-1.315-.239,6.236,6.236,0,0,1-2.245-1.086,5.642,5.642,0,0,1-2.043-4.286c-.11.01-.224.016-.348.019v.049a6.53,6.53,0,0,0,5.7,5.718,7.888,7.888,0,0,1-1.773-.309c.1.038.211.075.318.107a7.307,7.307,0,0,0,1.562.3,5.449,5.449,0,0,0,1.617-.061C498.418,940.982,498.357,940.774,498.218,940.8Z"
                transform="translate(-454.124 -865.218)" />
            <path class="a"
                d="M490.62,935.471c0,.055.007.109.01.164,0-.04,0-.075.006-.115a.273.273,0,0,0-.008-.049Z"
                transform="translate(-453.911 -865.477)" />
            <path class="a"
                d="M489.85,935.54l.016-.075v-.015h-.015C489.852,935.482,489.851,935.511,489.85,935.54Z"
                transform="translate(-453.199 -865.459)" />
            <path class="a"
                d="M425.616,831.655c.051-.462.11-.931.121-1.4,0-.1.171-.133.186-.025.022.158.046.319.065.48a1.429,1.429,0,0,1,.157-.331c.042-.064.168-.067.182.024a5.942,5.942,0,0,1-.168,1.526,9.772,9.772,0,0,0-.067,1.516v.05a5.065,5.065,0,0,0,.946-.166c.84-.27,1.347-1.44,1.347-1.44a1.913,1.913,0,0,1,1.53-.96,1.585,1.585,0,0,0,.81-.66c.894-1.353.271-3.677-.006-4.533a.389.389,0,0,0-.449-.258,26.22,26.22,0,0,1-8.66-.2.383.383,0,0,0-.394.172,5.8,5.8,0,0,0-.733,3.107c-.056,1.73,1,1.925,1,1.925a1.172,1.172,0,0,1,1.32.99,4.763,4.763,0,0,0,.748,1.38,3.021,3.021,0,0,0,1.758.658q.046-.224.089-.443C425.5,832.6,425.564,832.127,425.616,831.655Zm2.182-.857c.008-.008.449-.59,1.84-.384.1.015.753.109,1.26-1.074a.077.077,0,0,1,.142.061c-.542,1.265-.929,1.484-1.281,1.5a.449.449,0,0,1-.2-.04,1.568,1.568,0,0,0-1.66.05.074.074,0,0,1-.05.019.081.081,0,0,1-.059-.027.075.075,0,0,1,.008-.109Zm-4.319-.133a.076.076,0,0,1-.106-.025,1.23,1.23,0,0,0-1.324-.286c-1.079.29-1.337-.911-1.34-.92a.075.075,0,0,1,.054-.1.079.079,0,0,1,.1.054,1.174,1.174,0,0,0,1.265.621c1.069-.108,1.368.524,1.381.545a.075.075,0,0,1-.025.106Z"
                transform="translate(-389.02 -763.525)" />
            <path class="a"
                d="M490.128,933.67c-.01.046-.019.091-.028.135h.039v-.075A.42.42,0,0,0,490.128,933.67Z"
                transform="translate(-453.43 -863.812)" />
            <path class="a"
                d="M490.291,927.94c-.009.1-.019.2-.031.291,0,.031.008.075.016.138l0-.021v.079a.49.49,0,0,0,.011.075h.01A4.415,4.415,0,0,0,490.291,927.94Z"
                transform="translate(-453.578 -858.511)" />
            <path class="a"
                d="M489.76,933.788h.01c0-.046.005-.091.009-.138C489.773,933.7,489.767,933.742,489.76,933.788Z"
                transform="translate(-453.116 -863.793)" />
            <path class="a"
                d="M490.034,931.21c-.006.062-.01.122-.014.182.006-.046.013-.091.018-.136C490.035,931.226,490.034,931.21,490.034,931.21Z"
                transform="translate(-453.356 -861.536)" />
            <path class="a"
                d="M522.125,501.558a.305.305,0,0,0,.2-.075.211.211,0,0,0,.075-.141.142.142,0,0,0-.037-.106.08.08,0,0,0-.111-.008.075.075,0,0,0-.006.106.062.062,0,0,1-.019.034.155.155,0,0,1-.194,0,.078.078,0,0,0-.109.01.075.075,0,0,0,.01.109A.3.3,0,0,0,522.125,501.558Z"
                transform="translate(-482.853 -463.708)" />
            <path class="a"
                d="M532.3,505.882a.326.326,0,0,0,.046,0,.387.387,0,0,0,.25-.088.078.078,0,0,0-.1-.119.254.254,0,0,1-.345-.037.078.078,0,1,0-.123.094A.393.393,0,0,0,532.3,505.882Z"
                transform="translate(-492.206 -467.776)" />
        </g>
    </g>
</svg>